<mxfile host="app.diagrams.net" agent="Mozilla/5.0 (Macintosh; Intel Mac OS X 10_15_7) AppleWebKit/537.36 (KHTML, like Gecko) Chrome/134.0.0.0 Safari/537.36" version="26.1.1">
  <diagram name="Page-1" id="ifXv_HwX7C0ZDtJ3GV5Z">
    <mxGraphModel dx="1461" dy="849" grid="0" gridSize="10" guides="1" tooltips="1" connect="1" arrows="1" fold="1" page="0" pageScale="1" pageWidth="827" pageHeight="1169" math="0" shadow="0">
      <root>
        <mxCell id="0" />
        <mxCell id="1" parent="0" />
        <mxCell id="rwT41CK5Z8ELvEOwRBXb-1" value="START" style="rounded=1;whiteSpace=wrap;arcSize=50;strokeWidth=2;labelBackgroundColor=none;fillColor=#FAE5C7;strokeColor=#0F8B8D;fontColor=#143642;" parent="1" vertex="1">
          <mxGeometry x="487" y="20" width="68" height="39" as="geometry" />
        </mxCell>
        <mxCell id="rwT41CK5Z8ELvEOwRBXb-2" value="Login Page" style="whiteSpace=wrap;strokeWidth=2;labelBackgroundColor=none;fillColor=#FAE5C7;strokeColor=#0F8B8D;fontColor=#143642;" parent="1" vertex="1">
          <mxGeometry x="429" y="109" width="183" height="54" as="geometry" />
        </mxCell>
        <mxCell id="rwT41CK5Z8ELvEOwRBXb-3" value="Input Credentials" style="whiteSpace=wrap;strokeWidth=2;labelBackgroundColor=none;fillColor=#FAE5C7;strokeColor=#0F8B8D;fontColor=#143642;" parent="1" vertex="1">
          <mxGeometry x="429.5" y="190" width="183" height="54" as="geometry" />
        </mxCell>
        <mxCell id="rwT41CK5Z8ELvEOwRBXb-4" value="Are credentials valid?" style="rhombus;strokeWidth=2;whiteSpace=wrap;labelBackgroundColor=none;fillColor=#FAE5C7;strokeColor=#0F8B8D;fontColor=#143642;" parent="1" vertex="1">
          <mxGeometry x="417" y="267" width="208" height="208" as="geometry" />
        </mxCell>
        <mxCell id="rwT41CK5Z8ELvEOwRBXb-5" value="Dashboard" style="whiteSpace=wrap;strokeWidth=2;labelBackgroundColor=none;fillColor=#FAE5C7;strokeColor=#0F8B8D;fontColor=#143642;" parent="1" vertex="1">
          <mxGeometry x="454" y="523" width="134" height="54" as="geometry" />
        </mxCell>
        <mxCell id="rwT41CK5Z8ELvEOwRBXb-6" value="User Selection" style="rhombus;strokeWidth=2;whiteSpace=wrap;labelBackgroundColor=none;fillColor=#FAE5C7;strokeColor=#0F8B8D;fontColor=#143642;" parent="1" vertex="1">
          <mxGeometry x="443" y="602" width="157" height="157" as="geometry" />
        </mxCell>
        <mxCell id="rwT41CK5Z8ELvEOwRBXb-7" value="Orders&#xa;See Orders Flow" style="rounded=1;whiteSpace=wrap;arcSize=50;strokeWidth=2;labelBackgroundColor=none;fillColor=#FAE5C7;strokeColor=#0F8B8D;fontColor=#143642;" parent="1" vertex="1">
          <mxGeometry x="78" y="831" width="146" height="63" as="geometry" />
        </mxCell>
        <mxCell id="rwT41CK5Z8ELvEOwRBXb-8" value="Customers&#xa;See Customers Flow" style="rounded=1;whiteSpace=wrap;arcSize=50;strokeWidth=2;labelBackgroundColor=none;fillColor=#FAE5C7;strokeColor=#0F8B8D;fontColor=#143642;" parent="1" vertex="1">
          <mxGeometry x="244" y="831" width="174" height="63" as="geometry" />
        </mxCell>
        <mxCell id="rwT41CK5Z8ELvEOwRBXb-9" value="Products&#xa;See Products Flow" style="rounded=1;whiteSpace=wrap;arcSize=50;strokeWidth=2;labelBackgroundColor=none;fillColor=#FAE5C7;strokeColor=#0F8B8D;fontColor=#143642;" parent="1" vertex="1">
          <mxGeometry x="441" y="831" width="161" height="63" as="geometry" />
        </mxCell>
        <mxCell id="rwT41CK5Z8ELvEOwRBXb-10" value="Reports&#xa;See Reports Flow" style="rounded=1;whiteSpace=wrap;arcSize=50;strokeWidth=2;labelBackgroundColor=none;fillColor=#FAE5C7;strokeColor=#0F8B8D;fontColor=#143642;" parent="1" vertex="1">
          <mxGeometry x="626" y="831" width="153" height="63" as="geometry" />
        </mxCell>
        <mxCell id="rwT41CK5Z8ELvEOwRBXb-11" value="Logout" style="whiteSpace=wrap;strokeWidth=2;labelBackgroundColor=none;fillColor=#FAE5C7;strokeColor=#0F8B8D;fontColor=#143642;" parent="1" vertex="1">
          <mxGeometry x="806" y="653.5" width="108" height="54" as="geometry" />
        </mxCell>
        <mxCell id="rwT41CK5Z8ELvEOwRBXb-13" value="" style="curved=1;startArrow=none;endArrow=block;exitX=0.49;exitY=1;entryX=0.5;entryY=0;rounded=0;labelBackgroundColor=none;strokeColor=#A8201A;fontColor=default;" parent="1" source="rwT41CK5Z8ELvEOwRBXb-1" target="rwT41CK5Z8ELvEOwRBXb-2" edge="1">
          <mxGeometry relative="1" as="geometry">
            <Array as="points" />
          </mxGeometry>
        </mxCell>
        <mxCell id="rwT41CK5Z8ELvEOwRBXb-14" value="" style="startArrow=none;endArrow=block;exitX=0.5;exitY=1;entryX=0.5;entryY=0;rounded=0;labelBackgroundColor=none;strokeColor=#A8201A;fontColor=default;exitDx=0;exitDy=0;" parent="1" source="rwT41CK5Z8ELvEOwRBXb-2" target="rwT41CK5Z8ELvEOwRBXb-3" edge="1">
          <mxGeometry relative="1" as="geometry" />
        </mxCell>
        <mxCell id="rwT41CK5Z8ELvEOwRBXb-15" value="" style="startArrow=none;endArrow=block;exitX=0.5;exitY=1;entryX=0.5;entryY=0;rounded=0;labelBackgroundColor=none;strokeColor=#A8201A;fontColor=default;entryDx=0;entryDy=0;" parent="1" source="rwT41CK5Z8ELvEOwRBXb-3" target="rwT41CK5Z8ELvEOwRBXb-4" edge="1">
          <mxGeometry relative="1" as="geometry" />
        </mxCell>
        <mxCell id="rwT41CK5Z8ELvEOwRBXb-16" value="No" style="startArrow=none;endArrow=block;exitX=1;exitY=0.5;entryX=1;entryY=0.5;rounded=0;labelBackgroundColor=none;strokeColor=#A8201A;fontColor=default;exitDx=0;exitDy=0;entryDx=0;entryDy=0;edgeStyle=orthogonalEdgeStyle;" parent="1" source="rwT41CK5Z8ELvEOwRBXb-4" target="rwT41CK5Z8ELvEOwRBXb-2" edge="1">
          <mxGeometry x="0.003" relative="1" as="geometry">
            <Array as="points">
              <mxPoint x="658" y="371" />
              <mxPoint x="658" y="136" />
            </Array>
            <mxPoint as="offset" />
          </mxGeometry>
        </mxCell>
        <mxCell id="rwT41CK5Z8ELvEOwRBXb-17" value="Yes" style="curved=0;startArrow=none;endArrow=block;exitX=0.5;exitY=1;entryX=0.5;entryY=-0.01;rounded=0;labelBackgroundColor=none;strokeColor=#A8201A;fontColor=default;" parent="1" source="rwT41CK5Z8ELvEOwRBXb-4" target="rwT41CK5Z8ELvEOwRBXb-5" edge="1">
          <mxGeometry relative="1" as="geometry">
            <Array as="points" />
          </mxGeometry>
        </mxCell>
        <mxCell id="rwT41CK5Z8ELvEOwRBXb-18" value="" style="curved=1;startArrow=none;endArrow=block;exitX=0.5;exitY=0.99;entryX=0.5;entryY=0;rounded=0;labelBackgroundColor=none;strokeColor=#A8201A;fontColor=default;" parent="1" source="rwT41CK5Z8ELvEOwRBXb-5" target="rwT41CK5Z8ELvEOwRBXb-6" edge="1">
          <mxGeometry relative="1" as="geometry">
            <Array as="points" />
          </mxGeometry>
        </mxCell>
        <mxCell id="rwT41CK5Z8ELvEOwRBXb-19" value="Orders" style="startArrow=none;endArrow=block;exitX=0;exitY=0.5;entryX=0.5;entryY=0;rounded=0;labelBackgroundColor=none;strokeColor=#A8201A;fontColor=default;edgeStyle=orthogonalEdgeStyle;exitDx=0;exitDy=0;" parent="1" source="rwT41CK5Z8ELvEOwRBXb-6" target="rwT41CK5Z8ELvEOwRBXb-7" edge="1">
          <mxGeometry x="0.4486" y="2" relative="1" as="geometry">
            <mxPoint as="offset" />
          </mxGeometry>
        </mxCell>
        <mxCell id="rwT41CK5Z8ELvEOwRBXb-20" value="Customers" style="startArrow=none;endArrow=block;exitX=0;exitY=0.5;entryX=0.5;entryY=0;rounded=0;labelBackgroundColor=none;strokeColor=#A8201A;fontColor=default;edgeStyle=orthogonalEdgeStyle;exitDx=0;exitDy=0;" parent="1" source="rwT41CK5Z8ELvEOwRBXb-6" target="rwT41CK5Z8ELvEOwRBXb-8" edge="1">
          <mxGeometry x="0.0706" relative="1" as="geometry">
            <mxPoint as="offset" />
          </mxGeometry>
        </mxCell>
        <mxCell id="rwT41CK5Z8ELvEOwRBXb-21" value="Products" style="curved=0;startArrow=none;endArrow=block;exitX=0.5;exitY=1;entryX=0.5;entryY=0;rounded=0;labelBackgroundColor=none;strokeColor=#A8201A;fontColor=default;" parent="1" source="rwT41CK5Z8ELvEOwRBXb-6" target="rwT41CK5Z8ELvEOwRBXb-9" edge="1">
          <mxGeometry relative="1" as="geometry">
            <Array as="points" />
          </mxGeometry>
        </mxCell>
        <mxCell id="rwT41CK5Z8ELvEOwRBXb-22" value="Reports" style="startArrow=none;endArrow=block;exitX=1;exitY=0.5;entryX=0.5;entryY=0;rounded=0;labelBackgroundColor=none;strokeColor=#A8201A;fontColor=default;edgeStyle=orthogonalEdgeStyle;exitDx=0;exitDy=0;" parent="1" source="rwT41CK5Z8ELvEOwRBXb-6" target="rwT41CK5Z8ELvEOwRBXb-10" edge="1">
          <mxGeometry x="0.0672" relative="1" as="geometry">
            <mxPoint as="offset" />
          </mxGeometry>
        </mxCell>
        <mxCell id="rwT41CK5Z8ELvEOwRBXb-23" value="Logout" style="startArrow=none;endArrow=block;exitX=1;exitY=0.5;entryX=0;entryY=0.5;rounded=0;labelBackgroundColor=none;strokeColor=#A8201A;fontColor=default;edgeStyle=orthogonalEdgeStyle;exitDx=0;exitDy=0;entryDx=0;entryDy=0;" parent="1" source="rwT41CK5Z8ELvEOwRBXb-6" target="rwT41CK5Z8ELvEOwRBXb-11" edge="1">
          <mxGeometry x="0.5049" y="-13" relative="1" as="geometry">
            <mxPoint as="offset" />
          </mxGeometry>
        </mxCell>
        <mxCell id="rwT41CK5Z8ELvEOwRBXb-24" value="" style="startArrow=none;endArrow=block;exitX=1;exitY=0.5;entryX=1;entryY=0.5;rounded=0;labelBackgroundColor=none;strokeColor=#A8201A;fontColor=default;exitDx=0;exitDy=0;entryDx=0;entryDy=0;edgeStyle=orthogonalEdgeStyle;" parent="1" source="rwT41CK5Z8ELvEOwRBXb-11" target="rwT41CK5Z8ELvEOwRBXb-2" edge="1">
          <mxGeometry relative="1" as="geometry">
            <mxPoint x="908.019607843137" y="1044" as="targetPoint" />
          </mxGeometry>
        </mxCell>
        <mxCell id="fVSMl_xVwL5Xhtv_nVGq-3" value="Back" style="edgeLabel;html=1;align=center;verticalAlign=middle;resizable=0;points=[];" vertex="1" connectable="0" parent="rwT41CK5Z8ELvEOwRBXb-24">
          <mxGeometry x="-0.0826" y="2" relative="1" as="geometry">
            <mxPoint x="-2" y="84" as="offset" />
          </mxGeometry>
        </mxCell>
      </root>
    </mxGraphModel>
  </diagram>
</mxfile>
